<svg width="1081" height="238" viewBox="0 0 1081 238" fill="none" xmlns="http://www.w3.org/2000/svg">
<path d="M284.215 168.63V75.1095C284.215 73.2283 285.157 72.2861 287.038 72.2861H326.286C333.063 72.2861 339.061 73.6978 344.285 76.5211C349.51 79.3444 353.579 83.2727 356.497 88.3089C359.414 93.3452 360.873 99.1327 360.873 105.671C360.873 112.21 359.52 117.553 356.813 122.117C354.105 126.68 350.33 130.352 345.484 133.128L362.848 168.138C363.13 168.702 363.271 169.196 363.271 169.622C363.271 170.185 363.045 170.633 362.601 170.965C362.153 171.293 361.552 171.459 360.801 171.459H341.036C339.483 171.459 338.375 170.755 337.718 169.343L323.6 139.063C322.752 139.11 321.506 139.135 319.86 139.135H307.082V168.639C307.082 170.52 306.139 171.462 304.258 171.462H287.038C285.157 171.462 284.215 170.52 284.215 168.639V168.63ZM331.119 117.597C333.166 116.373 334.766 114.714 335.918 112.62C337.07 110.526 337.646 108.232 337.646 105.737C337.646 102.961 337.057 100.573 335.88 98.5724C334.703 96.5723 333.116 95.0667 331.116 94.0557C329.116 93.0447 326.868 92.5377 324.373 92.5377H307.079V119.428H324.161C326.749 119.428 329.066 118.818 331.113 117.594L331.119 117.597Z" fill="#020178"/>
<path d="M388.401 167.643C381.555 163.69 376.13 158.337 372.13 151.586C368.129 144.834 366.129 137.435 366.129 129.387C366.129 121.34 368.142 113.765 372.164 106.942C376.187 100.118 381.633 94.7312 388.504 90.778C395.375 86.8247 402.879 84.8496 411.021 84.8496C419.162 84.8496 426.75 86.8247 433.643 90.778C440.536 94.7312 445.995 100.118 450.021 106.942C454.043 113.765 456.056 121.246 456.056 129.387C456.056 137.529 454.034 144.834 449.987 151.586C445.939 158.337 440.458 163.69 433.54 167.643C426.622 171.596 419.069 173.571 410.883 173.571C402.697 173.571 395.247 171.596 388.401 167.643ZM422.778 149.714C426.331 147.645 429.154 144.822 431.249 141.244C433.343 137.669 434.391 133.669 434.391 129.246C434.391 124.824 433.343 120.802 431.249 117.177C429.154 113.555 426.331 110.707 422.778 108.635C419.225 106.566 415.331 105.53 411.096 105.53C406.86 105.53 402.966 106.566 399.413 108.635C395.86 110.707 393.037 113.552 390.943 117.177C388.849 120.802 387.8 124.824 387.8 129.246C387.8 133.669 388.845 137.669 390.943 141.244C393.037 144.822 395.86 147.645 399.413 149.714C402.966 151.786 406.86 152.819 411.096 152.819C415.331 152.819 419.225 151.783 422.778 149.714Z" fill="#020178"/>
<path d="M583.294 88.5909C588.046 91.5081 591.717 95.8151 594.306 101.509C596.895 107.202 598.188 114.098 598.188 122.189V168.633C598.188 170.514 597.246 171.456 595.364 171.456H579.412C577.531 171.456 576.589 170.514 576.589 168.633V123.037C576.589 117.391 575.224 112.933 572.494 109.662C569.765 106.392 565.93 104.758 560.987 104.758C557.882 104.758 555.068 105.559 552.551 107.158C550.034 108.758 548.009 110.899 546.482 113.581C544.951 116.264 544.093 119.156 543.905 122.264V168.636C543.905 170.517 542.963 171.459 541.082 171.459H525.058C523.176 171.459 522.234 170.517 522.234 168.636V123.04C522.234 117.394 520.882 112.937 518.174 109.666C515.466 106.395 511.644 104.761 506.705 104.761C503.459 104.761 500.529 105.643 497.918 107.409C495.307 109.174 493.26 111.503 491.776 114.395C490.293 117.29 489.554 120.383 489.554 123.676V168.636C489.554 170.517 488.612 171.459 486.73 171.459H470.706C468.825 171.459 467.883 170.517 467.883 168.636V89.0854C467.883 87.2043 468.822 86.2621 470.706 86.2621H483.059C484.705 86.2621 485.763 87.0165 486.236 88.522L487.788 93.4613C491.035 90.4971 494.766 88.2153 498.976 86.6158C503.186 85.0163 507.6 84.215 512.211 84.215C517.905 84.215 522.951 85.3794 527.352 87.7082C531.753 90.037 535.316 93.4362 538.045 97.9059C541.385 93.5301 545.539 90.1528 550.504 87.7771C555.469 85.4013 560.821 84.2119 566.562 84.2119C572.961 84.2119 578.539 85.6705 583.291 88.5877L583.294 88.5909Z" fill="#020178"/>
<path d="M679.965 86.2613H692.035C693.917 86.2613 694.859 87.2034 694.859 89.0846V168.632C694.859 170.513 693.917 171.455 692.035 171.455H679.542C677.99 171.455 676.932 170.679 676.365 169.127L674.953 163.48C668.743 170.022 660.904 173.29 651.448 173.29C643.494 173.29 636.188 171.315 629.529 167.361C622.871 163.408 617.612 158.034 613.753 151.232C609.893 144.434 607.965 137.009 607.965 128.965C607.965 120.92 609.906 113.521 613.787 106.766C617.669 100.015 622.94 94.6749 629.598 90.7435C636.256 86.8153 643.541 84.8496 651.445 84.8496C661.045 84.8496 668.927 88.1205 675.091 94.6592L676.784 88.518C677.301 87.0125 678.362 86.2581 679.962 86.2581L679.965 86.2613ZM663.412 149.539C666.871 147.539 669.588 144.775 671.563 141.244C673.538 137.713 674.528 133.716 674.528 129.246C674.528 124.777 673.538 120.742 671.563 117.142C669.588 113.543 666.88 110.707 663.446 108.638C660.009 106.569 656.175 105.533 651.939 105.533C647.704 105.533 643.891 106.569 640.504 108.638C637.117 110.71 634.457 113.543 632.528 117.142C630.597 120.742 629.633 124.777 629.633 129.246C629.633 133.716 630.584 137.729 632.491 141.282C634.397 144.834 637.033 147.598 640.398 149.576C643.763 151.551 647.563 152.54 651.798 152.54C656.034 152.54 659.95 151.542 663.409 149.542L663.412 149.539Z" fill="#020178"/>
<path d="M760.507 171.453H743.071C742.129 171.453 741.425 171.196 740.955 170.677C740.486 170.16 740.295 169.431 740.392 168.489L752.18 74.8966C752.274 74.0484 752.591 73.4036 753.132 72.956C753.674 72.5084 754.369 72.2861 755.214 72.2861H775.896C777.542 72.2861 778.578 73.0874 779.001 74.6869L798.484 139.692L817.895 74.6869C818.317 73.0874 819.354 72.2861 821 72.2861H841.682C842.53 72.2861 843.222 72.5115 843.764 72.956C844.305 73.4036 844.621 74.0515 844.715 74.8966L856.573 168.561C856.667 169.503 856.479 170.232 856.009 170.749C855.54 171.268 854.832 171.525 853.893 171.525H836.389C834.648 171.525 833.659 170.633 833.424 168.842L827.073 108.989L809.215 169.055C808.792 170.655 807.756 171.456 806.109 171.456H791.074C789.428 171.456 788.392 170.658 787.969 169.055L770.111 108.989L763.475 168.774C763.24 170.564 762.251 171.456 760.51 171.456L760.507 171.453Z" fill="#020178"/>
<path d="M935.879 86.2613H947.949C949.831 86.2613 950.773 87.2034 950.773 89.0846V168.632C950.773 170.513 949.831 171.455 947.949 171.455H935.456C933.904 171.455 932.846 170.679 932.279 169.127L930.867 163.48C924.657 170.022 916.819 173.29 907.362 173.29C899.408 173.29 892.102 171.315 885.444 167.361C878.785 163.408 873.526 158.034 869.667 151.232C865.807 144.434 863.879 137.009 863.879 128.965C863.879 120.92 865.82 113.521 869.701 106.766C873.583 100.015 878.854 94.6749 885.512 90.7435C892.171 86.8153 899.455 84.8496 907.359 84.8496C916.959 84.8496 924.841 88.1205 931.005 94.6592L932.699 88.518C933.215 87.0125 934.276 86.2581 935.876 86.2581L935.879 86.2613ZM919.326 149.539C922.785 147.539 925.502 144.775 927.477 141.244C929.452 137.713 930.442 133.716 930.442 129.246C930.442 124.777 929.452 120.742 927.477 117.142C925.502 113.543 922.794 110.707 919.36 108.638C915.923 106.569 912.089 105.533 907.853 105.533C903.618 105.533 899.805 106.569 896.418 108.638C893.031 110.71 890.371 113.543 888.442 117.142C886.511 120.742 885.547 124.777 885.547 129.246C885.547 133.716 886.498 137.729 888.405 141.282C890.311 144.834 892.947 147.598 896.312 149.576C899.677 151.551 903.477 152.54 907.712 152.54C911.948 152.54 915.864 151.542 919.323 149.542L919.326 149.539Z" fill="#020178"/>
<path d="M1028.25 89.72C1029.23 90.3335 1029.73 91.1097 1029.73 92.0488C1029.73 92.5183 1029.59 93.0379 1029.31 93.6013L1022.25 106.87C1021.68 107.906 1020.95 108.422 1020.06 108.422C1019.5 108.422 1018.95 108.259 1018.43 107.928C1014.86 105.999 1011.47 105.032 1008.27 105.032C1005.07 105.032 1002.2 105.94 999.378 107.749C996.554 109.561 994.272 112.219 992.532 115.725C990.791 119.23 989.921 123.406 989.921 128.254V168.629C989.921 170.51 988.979 171.452 987.098 171.452H971.074C969.192 171.452 968.25 170.51 968.25 168.629V89.0846C968.25 87.2034 969.189 86.2613 971.074 86.2613H983.426C985.025 86.2613 986.083 87.0156 986.603 88.5212L989.355 96.5686C992.037 92.8031 995.164 89.9109 998.742 87.8858C1002.32 85.8638 1006.51 84.8496 1011.31 84.8496C1016.91 84.8496 1022.55 86.4741 1028.25 89.72H1028.25Z" fill="#020178"/>
<path d="M1060.61 171.453H1044.59C1042.7 171.453 1041.76 170.511 1041.76 168.63V106.304H1034C1032.12 106.304 1031.18 105.362 1031.18 103.48V89.0822C1031.18 87.201 1032.11 86.2588 1034 86.2588H1041.62V71.0154C1041.62 69.2751 1042.47 68.2391 1044.16 67.9104L1060.4 64.8054C1060.58 64.7584 1060.82 64.7334 1061.1 64.7334C1061.86 64.7334 1062.44 64.9682 1062.87 65.4377C1063.29 65.9072 1063.51 66.5426 1063.51 67.3439V86.2588H1077.55C1079.43 86.2588 1080.37 87.201 1080.37 89.0822V103.48C1080.37 105.362 1079.43 106.304 1077.55 106.304H1063.43V168.63C1063.43 170.511 1062.49 171.453 1060.61 171.453Z" fill="#020178"/>
<path d="M223.159 134.746C227.479 139.065 227.519 146.084 223.202 150.407C223.175 150.434 223.148 150.461 223.121 150.488C220.473 153.136 217.711 155.635 214.842 157.982C206.682 164.661 197.649 170.111 187.881 174.243C174.204 180.028 159.682 182.962 144.717 182.962C129.753 182.962 115.231 180.028 101.554 174.243C88.3503 168.659 76.4919 160.665 66.3135 150.488C56.1329 140.308 48.141 128.453 42.5565 115.248C38.2192 104.996 35.4861 94.2721 34.3884 83.2422H11.7113C5.59576 83.2422 0.477566 78.3966 0.372704 72.2815C0.267841 66.0326 5.29902 60.9326 11.5261 60.9326H45.1736C51.2624 60.9326 56.1552 65.8876 56.1485 71.9759C56.1485 72.0138 56.1485 72.0517 56.1485 72.0896C56.1485 75.8667 56.3873 79.5879 56.8491 83.2422C62.3488 126.831 99.6577 160.652 144.717 160.652C165.123 160.652 183.941 153.716 198.934 142.075C201.883 139.788 204.683 137.318 207.318 134.684C211.667 130.336 218.697 130.286 223.045 134.635L223.159 134.748V134.746Z" fill="#E4B340"/>
<path d="M185.149 67.171L191.521 126.454C178.509 137.687 162.083 143.816 144.717 143.816C125.556 143.816 107.543 136.356 93.9954 122.809C80.4456 109.262 72.9844 91.2483 72.9844 72.089C72.9844 64.7462 74.0801 57.5728 76.1971 50.7529H95.9966C97.8098 50.7529 99.4409 51.1209 100.896 51.8548C102.35 52.5907 103.503 53.6843 104.359 55.1376C105.213 56.5908 105.641 58.3273 105.641 60.345C105.641 62.158 105.221 63.8242 104.384 65.3457C103.545 66.8672 102.383 68.0724 100.896 68.9613C99.4079 69.8502 97.7229 70.2947 95.8437 70.2947H91.2499C90.1004 70.2947 89.3396 71.4895 89.8254 72.5314L95.4322 84.5546L104.7 104.435L105.693 106.56C106.17 107.586 106.975 108.101 108.103 108.101H122.468C122.676 108.101 122.871 108.082 123.049 108.049C123.224 108.084 123.415 108.101 123.623 108.101H136.294C137.56 108.101 138.277 107.451 138.449 106.151L142.778 67.1297C142.885 66.1519 144.258 66.0299 144.537 66.9726L156.247 106.356C156.555 107.518 157.308 108.101 158.505 108.101H169.431C170.628 108.101 171.38 107.518 171.688 106.356L183.388 67.0098C183.669 66.0651 185.044 66.1912 185.149 67.171Z" fill="#020178"/>
<path d="M216.447 72.2189C216.425 85.501 212.817 98.2249 206.077 109.291L197.491 37.9294C197.421 37.3133 197.192 36.8441 196.799 36.5195C196.404 36.195 195.899 36.0316 195.285 36.0316H180.255C179.056 36.0316 178.306 36.6146 177.998 37.7764L163.89 85.0193L149.732 37.7764C149.424 36.6146 148.672 36.0316 147.475 36.0316H132.445C131.829 36.0316 131.324 36.195 130.931 36.5195C130.536 36.8441 130.307 37.3133 130.239 37.9294L122.802 96.9577C122.61 98.4875 120.551 98.8347 119.867 97.4538L111.332 80.2481C114.855 78.2304 117.599 75.5637 119.567 72.2458C121.533 68.9299 122.515 64.9463 122.515 60.295C122.515 55.6437 121.454 51.3355 119.335 47.6765C117.214 44.0174 114.256 41.1605 110.46 39.1098C106.664 37.057 102.304 36.0316 97.3794 36.0316H82.6719C85.7564 30.7415 89.5481 25.8174 93.993 21.3728C107.541 7.82399 125.554 0.363281 144.715 0.363281C163.875 0.363281 182.323 8.00384 195.926 21.8648C209.133 35.3205 216.48 53.3655 216.447 72.2189Z" fill="#020178"/>
<path fill-rule="evenodd" clip-rule="evenodd" d="M93.4648 214.871C93.4648 227.612 103.795 237.941 116.537 237.941C129.28 237.941 139.61 227.612 139.61 214.871C139.61 202.129 129.28 191.8 116.537 191.8C103.795 191.8 93.4648 202.129 93.4648 214.871ZM125.21 214.871C125.21 219.659 121.329 223.54 116.54 223.54C111.752 223.54 107.87 219.659 107.87 214.871C107.87 210.083 111.752 206.201 116.54 206.201C121.329 206.201 125.21 210.083 125.21 214.871Z" fill="#E4B340"/>
<path fill-rule="evenodd" clip-rule="evenodd" d="M151.172 214.871C151.172 227.612 161.502 237.941 174.244 237.941C186.987 237.941 197.317 227.612 197.317 214.871C197.317 202.129 186.987 191.8 174.244 191.8C161.502 191.8 151.172 202.129 151.172 214.871ZM182.917 214.871C182.917 219.659 179.036 223.54 174.247 223.54C169.459 223.54 165.577 219.659 165.577 214.871C165.577 210.083 169.459 206.201 174.247 206.201C179.036 206.201 182.917 210.083 182.917 214.871Z" fill="#E4B340"/>
</svg>
