<svg width="1081" height="239" viewBox="0 0 1081 239" fill="none" xmlns="http://www.w3.org/2000/svg">
<path d="M284.215 169.048V75.5284C284.215 73.6472 285.157 72.7051 287.038 72.7051H326.286C333.063 72.7051 339.061 74.1167 344.285 76.9401C349.51 79.7634 353.579 83.6916 356.497 88.7279C359.414 93.7642 360.873 99.5516 360.873 106.09C360.873 112.629 359.52 117.972 356.813 122.536C354.105 127.099 350.33 130.771 345.484 133.547L362.848 168.557C363.13 169.12 363.271 169.615 363.271 170.041C363.271 170.604 363.045 171.052 362.601 171.383C362.153 171.712 361.552 171.878 360.801 171.878H341.036C339.483 171.878 338.375 171.174 337.718 169.762L323.6 139.482C322.752 139.529 321.506 139.554 319.86 139.554H307.082V169.058C307.082 170.939 306.139 171.881 304.258 171.881H287.038C285.157 171.881 284.215 170.939 284.215 169.058V169.048ZM331.119 118.016C333.166 116.792 334.766 115.133 335.918 113.039C337.07 110.945 337.646 108.651 337.646 106.156C337.646 103.38 337.057 100.991 335.88 98.9914C334.703 96.9913 333.116 95.4857 331.116 94.4747C329.116 93.4637 326.868 92.9566 324.373 92.9566H307.079V119.847H324.161C326.749 119.847 329.066 119.237 331.113 118.013L331.119 118.016Z" fill="white"/>
<path d="M388.401 168.061C381.555 164.108 376.13 158.756 372.13 152.004C368.129 145.253 366.129 137.853 366.129 129.806C366.129 121.758 368.142 114.184 372.164 107.36C376.187 100.537 381.633 95.1497 388.504 91.1964C395.375 87.2431 402.879 85.2681 411.021 85.2681C419.162 85.2681 426.75 87.2431 433.643 91.1964C440.536 95.1497 445.995 100.537 450.021 107.36C454.043 114.184 456.056 121.664 456.056 129.806C456.056 137.947 454.034 145.253 449.987 152.004C445.939 158.756 440.458 164.108 433.54 168.061C426.622 172.015 419.069 173.99 410.883 173.99C402.697 173.99 395.247 172.015 388.401 168.061ZM422.778 150.132C426.331 148.063 429.154 145.24 431.249 141.662C433.343 138.088 434.391 134.088 434.391 129.665C434.391 125.242 433.343 121.22 431.249 117.595C429.154 113.974 426.331 111.126 422.778 109.053C419.225 106.984 415.331 105.948 411.096 105.948C406.86 105.948 402.966 106.984 399.413 109.053C395.86 111.126 393.037 113.971 390.943 117.595C388.849 121.22 387.8 125.242 387.8 129.665C387.8 134.088 388.845 138.088 390.943 141.662C393.037 145.24 395.86 148.063 399.413 150.132C402.966 152.205 406.86 153.237 411.096 153.237C415.331 153.237 419.225 152.201 422.778 150.132Z" fill="white"/>
<path d="M583.294 89.0093C588.046 91.9266 591.717 96.2335 594.306 101.927C596.895 107.621 598.188 114.516 598.188 122.607V169.051C598.188 170.933 597.246 171.875 595.364 171.875H579.412C577.531 171.875 576.589 170.933 576.589 169.051V123.456C576.589 117.809 575.224 113.352 572.494 110.081C569.765 106.81 565.93 105.176 560.987 105.176C557.882 105.176 555.068 105.977 552.551 107.577C550.034 109.176 548.009 111.317 546.482 114C544.951 116.682 544.093 119.574 543.905 122.683V169.054C543.905 170.936 542.963 171.878 541.082 171.878H525.058C523.176 171.878 522.234 170.936 522.234 169.054V123.459C522.234 117.812 520.882 113.355 518.174 110.084C515.466 106.813 511.644 105.179 506.705 105.179C503.459 105.179 500.529 106.062 497.918 107.827C495.307 109.593 493.26 111.921 491.776 114.814C490.293 117.709 489.554 120.801 489.554 124.094V169.054C489.554 170.936 488.612 171.878 486.73 171.878H470.706C468.825 171.878 467.883 170.936 467.883 169.054V89.5039C467.883 87.6227 468.822 86.6806 470.706 86.6806H483.059C484.705 86.6806 485.763 87.4349 486.236 88.9405L487.788 93.8797C491.035 90.9155 494.766 88.6337 498.976 87.0343C503.186 85.4348 507.6 84.6335 512.211 84.6335C517.905 84.6335 522.951 85.7979 527.352 88.1267C531.753 90.4554 535.316 93.8547 538.045 98.3244C541.385 93.9486 545.539 90.5712 550.504 88.1955C555.469 85.8198 560.821 84.6304 566.562 84.6304C572.961 84.6304 578.539 86.089 583.291 89.0062L583.294 89.0093Z" fill="white"/>
<path d="M679.965 86.6797H692.035C693.917 86.6797 694.859 87.6219 694.859 89.503V169.051C694.859 170.932 693.917 171.874 692.035 171.874H679.542C677.99 171.874 676.932 171.098 676.365 169.545L674.953 163.898C668.743 170.44 660.904 173.708 651.448 173.708C643.494 173.708 636.188 171.733 629.529 167.78C622.871 163.826 617.612 158.452 613.753 151.65C609.893 144.852 607.965 137.427 607.965 129.383C607.965 121.339 609.906 113.939 613.787 107.185C617.669 100.433 622.94 95.0933 629.598 91.162C636.256 87.2337 643.541 85.2681 651.445 85.2681C661.045 85.2681 668.927 88.539 675.091 95.0777L676.784 88.9365C677.301 87.4309 678.362 86.6766 679.962 86.6766L679.965 86.6797ZM663.412 149.957C666.871 147.957 669.588 145.193 671.563 141.662C673.538 138.132 674.528 134.135 674.528 129.665C674.528 125.195 673.538 121.161 671.563 117.561C669.588 113.961 666.88 111.126 663.446 109.057C660.009 106.988 656.175 105.952 651.939 105.952C647.704 105.952 643.891 106.988 640.504 109.057C637.117 111.129 634.457 113.961 632.528 117.561C630.597 121.161 629.633 125.195 629.633 129.665C629.633 134.135 630.584 138.147 632.491 141.7C634.397 145.253 637.033 148.016 640.398 149.995C643.763 151.97 647.563 152.959 651.798 152.959C656.034 152.959 659.95 151.96 663.409 149.96L663.412 149.957Z" fill="white"/>
<path d="M760.507 171.872H743.071C742.129 171.872 741.425 171.615 740.955 171.096C740.486 170.579 740.295 169.85 740.392 168.908L752.18 75.3156C752.274 74.4673 752.591 73.8225 753.132 73.3749C753.674 72.9273 754.369 72.7051 755.214 72.7051H775.896C777.542 72.7051 778.578 73.5064 779.001 75.1058L798.484 140.111L817.895 75.1058C818.317 73.5064 819.354 72.7051 821 72.7051H841.682C842.53 72.7051 843.222 72.9304 843.764 73.3749C844.305 73.8225 844.621 74.4704 844.715 75.3156L856.573 168.98C856.667 169.922 856.479 170.651 856.009 171.168C855.54 171.687 854.832 171.944 853.893 171.944H836.389C834.648 171.944 833.659 171.052 833.424 169.261L827.073 109.408L809.215 169.474C808.792 171.074 807.756 171.875 806.109 171.875H791.074C789.428 171.875 788.392 171.077 787.969 169.474L770.111 109.408L763.475 169.192C763.24 170.983 762.251 171.875 760.51 171.875L760.507 171.872Z" fill="white"/>
<path d="M935.879 86.6797H947.949C949.831 86.6797 950.773 87.6219 950.773 89.503V169.051C950.773 170.932 949.831 171.874 947.949 171.874H935.456C933.904 171.874 932.846 171.098 932.279 169.545L930.867 163.898C924.657 170.44 916.819 173.708 907.362 173.708C899.408 173.708 892.102 171.733 885.444 167.78C878.785 163.826 873.526 158.452 869.667 151.65C865.807 144.852 863.879 137.427 863.879 129.383C863.879 121.339 865.82 113.939 869.701 107.185C873.583 100.433 878.854 95.0933 885.512 91.162C892.171 87.2337 899.455 85.2681 907.359 85.2681C916.959 85.2681 924.841 88.539 931.005 95.0777L932.699 88.9365C933.215 87.4309 934.276 86.6766 935.876 86.6766L935.879 86.6797ZM919.326 149.957C922.785 147.957 925.502 145.193 927.477 141.662C929.452 138.132 930.442 134.135 930.442 129.665C930.442 125.195 929.452 121.161 927.477 117.561C925.502 113.961 922.794 111.126 919.36 109.057C915.923 106.988 912.089 105.952 907.853 105.952C903.618 105.952 899.805 106.988 896.418 109.057C893.031 111.129 890.371 113.961 888.442 117.561C886.511 121.161 885.547 125.195 885.547 129.665C885.547 134.135 886.498 138.147 888.405 141.7C890.311 145.253 892.947 148.016 896.312 149.995C899.677 151.97 903.477 152.959 907.712 152.959C911.948 152.959 915.864 151.96 919.323 149.96L919.326 149.957Z" fill="white"/>
<path d="M1028.25 90.1384C1029.23 90.7519 1029.73 91.5282 1029.73 92.4672C1029.73 92.9367 1029.59 93.4563 1029.31 94.0197L1022.25 107.288C1021.68 108.324 1020.95 108.841 1020.06 108.841C1019.5 108.841 1018.95 108.678 1018.43 108.346C1014.86 106.418 1011.47 105.451 1008.27 105.451C1005.07 105.451 1002.2 106.358 999.378 108.168C996.554 109.98 994.272 112.637 992.532 116.143C990.791 119.649 989.921 123.824 989.921 128.673V169.047C989.921 170.929 988.979 171.871 987.098 171.871H971.074C969.192 171.871 968.25 170.929 968.25 169.047V89.503C968.25 87.6219 969.189 86.6797 971.074 86.6797H983.426C985.025 86.6797 986.083 87.4341 986.603 88.9396L989.355 96.987C992.037 93.2216 995.164 90.3294 998.742 88.3042C1002.32 86.2822 1006.51 85.2681 1011.31 85.2681C1016.91 85.2681 1022.55 86.8926 1028.25 90.1384H1028.25Z" fill="white"/>
<path d="M1060.61 171.871H1044.59C1042.7 171.871 1041.76 170.929 1041.76 169.048V106.722H1034C1032.12 106.722 1031.18 105.78 1031.18 103.899V89.5006C1031.18 87.6195 1032.11 86.6773 1034 86.6773H1041.62V71.4339C1041.62 69.6936 1042.47 68.6575 1044.16 68.3289L1060.4 65.2238C1060.58 65.1769 1060.82 65.1519 1061.1 65.1519C1061.86 65.1519 1062.44 65.3866 1062.87 65.8561C1063.29 66.3256 1063.51 66.961 1063.51 67.7623V86.6773H1077.55C1079.43 86.6773 1080.37 87.6195 1080.37 89.5006V103.899C1080.37 105.78 1079.43 106.722 1077.55 106.722H1063.43V169.048C1063.43 170.929 1062.49 171.871 1060.61 171.871Z" fill="white"/>
<path d="M223.159 135.164C227.479 139.483 227.519 146.502 223.202 150.825C223.175 150.852 223.148 150.879 223.121 150.906C220.473 153.554 217.711 156.053 214.842 158.4C206.682 165.079 197.649 170.529 187.881 174.661C174.204 180.446 159.682 183.38 144.717 183.38C129.753 183.38 115.231 180.446 101.554 174.661C88.3503 169.077 76.4919 161.083 66.3135 150.906C56.1329 140.726 48.141 128.871 42.5565 115.666C38.2192 105.414 35.4861 94.69 34.3884 83.6602H11.7113C5.59576 83.6602 0.477566 78.8145 0.372704 72.6995C0.267841 66.4506 5.29902 61.3506 11.5261 61.3506H45.1736C51.2624 61.3506 56.1552 66.3055 56.1485 72.3938C56.1485 72.4318 56.1485 72.4697 56.1485 72.5076C56.1485 76.2846 56.3873 80.0059 56.8491 83.6602C62.3488 127.249 99.6577 161.07 144.717 161.07C165.123 161.07 183.941 154.134 198.934 142.493C201.883 140.206 204.683 137.736 207.318 135.102C211.667 130.753 218.697 130.704 223.045 135.053L223.159 135.166V135.164Z" fill="#E4B340"/>
<path d="M185.149 67.589L191.521 126.872C178.509 138.105 162.083 144.234 144.717 144.234C125.556 144.234 107.543 136.774 93.9954 123.227C80.4456 109.68 72.9844 91.6663 72.9844 72.507C72.9844 65.1641 74.0801 57.9908 76.1971 51.1709H95.9966C97.8098 51.1709 99.4409 51.5389 100.896 52.2727C102.35 53.0087 103.503 54.1023 104.359 55.5555C105.213 57.0088 105.641 58.7453 105.641 60.7629C105.641 62.5759 105.221 64.2421 104.384 65.7636C103.545 67.2851 102.383 68.4903 100.896 69.3793C99.4079 70.2682 97.7229 70.7126 95.8437 70.7126H91.2499C90.1004 70.7126 89.3396 71.9075 89.8254 72.9494L95.4322 84.9725L104.7 104.853L105.693 106.978C106.17 108.004 106.975 108.519 108.103 108.519H122.468C122.676 108.519 122.871 108.5 123.049 108.467C123.224 108.502 123.415 108.519 123.623 108.519H136.294C137.56 108.519 138.277 107.869 138.449 106.569L142.778 67.5477C142.885 66.5699 144.258 66.4479 144.537 67.3906L156.247 106.774C156.555 107.936 157.308 108.519 158.505 108.519H169.431C170.628 108.519 171.38 107.936 171.688 106.774L183.388 67.4278C183.669 66.483 185.044 66.6091 185.149 67.589Z" fill="white"/>
<path d="M216.447 72.6368C216.425 85.9189 212.817 98.6429 206.077 109.709L197.491 38.3473C197.421 37.7313 197.192 37.262 196.799 36.9375C196.404 36.6129 195.899 36.4496 195.285 36.4496H180.255C179.056 36.4496 178.306 37.0326 177.998 38.1944L163.89 85.4373L149.732 38.1944C149.424 37.0326 148.672 36.4496 147.475 36.4496H132.445C131.829 36.4496 131.324 36.6129 130.931 36.9375C130.536 37.262 130.307 37.7313 130.239 38.3473L122.802 97.3757C122.61 98.9054 120.551 99.2527 119.867 97.8718L111.332 80.6661C114.855 78.6484 117.599 75.9817 119.567 72.6637C121.533 69.3479 122.515 65.3643 122.515 60.7129C122.515 56.0616 121.454 51.7535 119.335 48.0944C117.214 44.4354 114.256 41.5785 110.46 39.5277C106.664 37.475 102.304 36.4496 97.3794 36.4496H82.6719C85.7564 31.1595 89.5481 26.2353 93.993 21.7907C107.541 8.24196 125.554 0.78125 144.715 0.78125C163.875 0.78125 182.323 8.42181 195.926 22.2827C209.133 35.7385 216.48 53.7835 216.447 72.6368Z" fill="white"/>
<path fill-rule="evenodd" clip-rule="evenodd" d="M93.4648 215.289C93.4648 228.03 103.795 238.359 116.537 238.359C129.28 238.359 139.61 228.03 139.61 215.289C139.61 202.547 129.28 192.218 116.537 192.218C103.795 192.218 93.4648 202.547 93.4648 215.289ZM125.21 215.289C125.21 220.077 121.329 223.958 116.54 223.958C111.752 223.958 107.87 220.077 107.87 215.289C107.87 210.501 111.752 206.619 116.54 206.619C121.329 206.619 125.21 210.501 125.21 215.289Z" fill="#E4B340"/>
<path fill-rule="evenodd" clip-rule="evenodd" d="M151.172 215.289C151.172 228.03 161.502 238.359 174.244 238.359C186.987 238.359 197.317 228.03 197.317 215.289C197.317 202.547 186.987 192.218 174.244 192.218C161.502 192.218 151.172 202.547 151.172 215.289ZM182.917 215.289C182.917 220.077 179.036 223.958 174.247 223.958C169.459 223.958 165.577 220.077 165.577 215.289C165.577 210.501 169.459 206.619 174.247 206.619C179.036 206.619 182.917 210.501 182.917 215.289Z" fill="#E4B340"/>
</svg>
