<svg width="1081" height="239" viewBox="0 0 1081 239" fill="none" xmlns="http://www.w3.org/2000/svg">
<path d="M284.215 168.849V75.3292C284.215 73.448 285.157 72.5059 287.038 72.5059H326.286C333.063 72.5059 339.061 73.9175 344.285 76.7408C349.51 79.5642 353.579 83.4924 356.497 88.5287C359.414 93.5649 360.873 99.3524 360.873 105.891C360.873 112.43 359.52 117.773 356.813 122.336C354.105 126.9 350.33 130.572 345.484 133.348L362.848 168.358C363.13 168.921 363.271 169.416 363.271 169.841C363.271 170.405 363.045 170.852 362.601 171.184C362.153 171.513 361.552 171.679 360.801 171.679H341.036C339.483 171.679 338.375 170.975 337.718 169.563L323.6 139.283C322.752 139.33 321.506 139.355 319.86 139.355H307.082V168.859C307.082 170.74 306.139 171.682 304.258 171.682H287.038C285.157 171.682 284.215 170.74 284.215 168.859V168.849ZM331.119 117.817C333.166 116.593 334.766 114.934 335.918 112.84C337.07 110.746 337.646 108.452 337.646 105.957C337.646 103.18 337.057 100.792 335.88 98.7921C334.703 96.792 333.116 95.2865 331.116 94.2755C329.116 93.2644 326.868 92.7574 324.373 92.7574H307.079V119.648H324.161C326.749 119.648 329.066 119.037 331.113 117.814L331.119 117.817Z" fill="black"/>
<path d="M388.401 167.863C381.555 163.909 376.13 158.557 372.13 151.805C368.129 145.054 366.129 137.654 366.129 129.607C366.129 121.56 368.142 113.985 372.164 107.161C376.187 100.338 381.633 94.951 388.504 90.9977C395.375 87.0444 402.879 85.0693 411.021 85.0693C419.162 85.0693 426.75 87.0444 433.643 90.9977C440.536 94.951 445.995 100.338 450.021 107.161C454.043 113.985 456.056 121.466 456.056 129.607C456.056 137.748 454.034 145.054 449.987 151.805C445.939 158.557 440.458 163.909 433.54 167.863C426.622 171.816 419.069 173.791 410.883 173.791C402.697 173.791 395.247 171.816 388.401 167.863ZM422.778 149.934C426.331 147.865 429.154 145.041 431.249 141.464C433.343 137.889 434.391 133.889 434.391 129.466C434.391 125.043 433.343 121.021 431.249 117.397C429.154 113.775 426.331 110.927 422.778 108.855C419.225 106.786 415.331 105.75 411.096 105.75C406.86 105.75 402.966 106.786 399.413 108.855C395.86 110.927 393.037 113.772 390.943 117.397C388.849 121.021 387.8 125.043 387.8 129.466C387.8 133.889 388.845 137.889 390.943 141.464C393.037 145.041 395.86 147.865 399.413 149.934C402.966 152.006 406.86 153.039 411.096 153.039C415.331 153.039 419.225 152.003 422.778 149.934Z" fill="black"/>
<path d="M583.294 88.8106C588.046 91.7278 591.717 96.0348 594.306 101.728C596.895 107.422 598.188 114.317 598.188 122.409V168.853C598.188 170.734 597.246 171.676 595.364 171.676H579.412C577.531 171.676 576.589 170.734 576.589 168.853V123.257C576.589 117.61 575.224 113.153 572.494 109.882C569.765 106.611 565.93 104.977 560.987 104.977C557.882 104.977 555.068 105.779 552.551 107.378C550.034 108.978 548.009 111.119 546.482 113.801C544.951 116.484 544.093 119.376 543.905 122.484V168.856C543.905 170.737 542.963 171.679 541.082 171.679H525.058C523.176 171.679 522.234 170.737 522.234 168.856V123.26C522.234 117.613 520.882 113.156 518.174 109.885C515.466 106.614 511.644 104.981 506.705 104.981C503.459 104.981 500.529 105.863 497.918 107.629C495.307 109.394 493.26 111.723 491.776 114.615C490.293 117.51 489.554 120.603 489.554 123.895V168.856C489.554 170.737 488.612 171.679 486.73 171.679H470.706C468.825 171.679 467.883 170.737 467.883 168.856V89.3052C467.883 87.424 468.822 86.4818 470.706 86.4818H483.059C484.705 86.4818 485.763 87.2362 486.236 88.7417L487.788 93.681C491.035 90.7168 494.766 88.435 498.976 86.8355C503.186 85.2361 507.6 84.4348 512.211 84.4348C517.905 84.4348 522.951 85.5992 527.352 87.9279C531.753 90.2567 535.316 93.6559 538.045 98.1257C541.385 93.7498 545.539 90.3725 550.504 87.9968C555.469 85.6211 560.821 84.4316 566.562 84.4316C572.961 84.4316 578.539 85.8903 583.291 88.8075L583.294 88.8106Z" fill="black"/>
<path d="M679.965 86.481H692.035C693.917 86.481 694.859 87.4231 694.859 89.3043V168.852C694.859 170.733 693.917 171.675 692.035 171.675H679.542C677.99 171.675 676.932 170.899 676.365 169.346L674.953 163.7C668.743 170.242 660.904 173.509 651.448 173.509C643.494 173.509 636.188 171.534 629.529 167.581C622.871 163.628 617.612 158.253 613.753 151.452C609.893 144.653 607.965 137.229 607.965 129.184C607.965 121.14 609.906 113.741 613.787 106.986C617.669 100.234 622.94 94.8946 629.598 90.9632C636.256 87.035 643.541 85.0693 651.445 85.0693C661.045 85.0693 668.927 88.3403 675.091 94.879L676.784 88.7378C677.301 87.2322 678.362 86.4779 679.962 86.4779L679.965 86.481ZM663.412 149.758C666.871 147.758 669.588 144.994 671.563 141.464C673.538 137.933 674.528 133.936 674.528 129.466C674.528 124.996 673.538 120.962 671.563 117.362C669.588 113.763 666.88 110.927 663.446 108.858C660.009 106.789 656.175 105.753 651.939 105.753C647.704 105.753 643.891 106.789 640.504 108.858C637.117 110.93 634.457 113.763 632.528 117.362C630.597 120.962 629.633 124.996 629.633 129.466C629.633 133.936 630.584 137.949 632.491 141.501C634.397 145.054 637.033 147.818 640.398 149.796C643.763 151.771 647.563 152.76 651.798 152.76C656.034 152.76 659.95 151.762 663.409 149.762L663.412 149.758Z" fill="black"/>
<path d="M760.507 171.673H743.071C742.129 171.673 741.425 171.416 740.955 170.896C740.486 170.38 740.295 169.651 740.392 168.708L752.18 75.1163C752.274 74.2681 752.591 73.6233 753.132 73.1757C753.674 72.7281 754.369 72.5059 755.214 72.5059H775.896C777.542 72.5059 778.578 73.3072 779.001 74.9066L798.484 139.912L817.895 74.9066C818.317 73.3072 819.354 72.5059 821 72.5059H841.682C842.53 72.5059 843.222 72.7312 843.764 73.1757C844.305 73.6233 844.621 74.2712 844.715 75.1163L856.573 168.78C856.667 169.723 856.479 170.452 856.009 170.968C855.54 171.488 854.832 171.745 853.893 171.745H836.389C834.648 171.745 833.659 170.852 833.424 169.062L827.073 109.209L809.215 169.275C808.792 170.874 807.756 171.676 806.109 171.676H791.074C789.428 171.676 788.392 170.878 787.969 169.275L770.111 109.209L763.475 168.993C763.24 170.784 762.251 171.676 760.51 171.676L760.507 171.673Z" fill="black"/>
<path d="M935.879 86.481H947.949C949.831 86.481 950.773 87.4231 950.773 89.3043V168.852C950.773 170.733 949.831 171.675 947.949 171.675H935.456C933.904 171.675 932.846 170.899 932.279 169.346L930.867 163.7C924.657 170.242 916.819 173.509 907.362 173.509C899.408 173.509 892.102 171.534 885.444 167.581C878.785 163.628 873.526 158.253 869.667 151.452C865.807 144.653 863.879 137.229 863.879 129.184C863.879 121.14 865.82 113.741 869.701 106.986C873.583 100.234 878.854 94.8946 885.512 90.9632C892.171 87.035 899.455 85.0693 907.359 85.0693C916.959 85.0693 924.841 88.3403 931.005 94.879L932.699 88.7378C933.215 87.2322 934.276 86.4779 935.876 86.4779L935.879 86.481ZM919.326 149.758C922.785 147.758 925.502 144.994 927.477 141.464C929.452 137.933 930.442 133.936 930.442 129.466C930.442 124.996 929.452 120.962 927.477 117.362C925.502 113.763 922.794 110.927 919.36 108.858C915.923 106.789 912.089 105.753 907.853 105.753C903.618 105.753 899.805 106.789 896.418 108.858C893.031 110.93 890.371 113.763 888.442 117.362C886.511 120.962 885.547 124.996 885.547 129.466C885.547 133.936 886.498 137.949 888.405 141.501C890.311 145.054 892.947 147.818 896.312 149.796C899.677 151.771 903.477 152.76 907.712 152.76C911.948 152.76 915.864 151.762 919.323 149.762L919.326 149.758Z" fill="black"/>
<path d="M1028.25 89.9397C1029.23 90.5532 1029.73 91.3295 1029.73 92.2685C1029.73 92.738 1029.59 93.2576 1029.31 93.821L1022.25 107.089C1021.68 108.125 1020.95 108.642 1020.06 108.642C1019.5 108.642 1018.95 108.479 1018.43 108.147C1014.86 106.219 1011.47 105.252 1008.27 105.252C1005.07 105.252 1002.2 106.16 999.378 107.969C996.554 109.781 994.272 112.439 992.532 115.944C990.791 119.45 989.921 123.625 989.921 128.474V168.849C989.921 170.73 988.979 171.672 987.098 171.672H971.074C969.192 171.672 968.25 170.73 968.25 168.849V89.3043C968.25 87.4231 969.189 86.481 971.074 86.481H983.426C985.025 86.481 986.083 87.2353 986.603 88.7409L989.355 96.7883C992.037 93.0228 995.164 90.1307 998.742 88.1055C1002.32 86.0835 1006.51 85.0693 1011.31 85.0693C1016.91 85.0693 1022.55 86.6938 1028.25 89.9397H1028.25Z" fill="black"/>
<path d="M1060.61 171.673H1044.59C1042.7 171.673 1041.76 170.731 1041.76 168.849V106.524H1034C1032.12 106.524 1031.18 105.581 1031.18 103.7V89.3019C1031.18 87.4207 1032.11 86.4786 1034 86.4786H1041.62V71.2352C1041.62 69.4948 1042.47 68.4588 1044.16 68.1301L1060.4 65.0251C1060.58 64.9782 1060.82 64.9531 1061.1 64.9531C1061.86 64.9531 1062.44 65.1879 1062.87 65.6574C1063.29 66.1269 1063.51 66.7623 1063.51 67.5636V86.4786H1077.55C1079.43 86.4786 1080.37 87.4207 1080.37 89.3019V103.7C1080.37 105.581 1079.43 106.524 1077.55 106.524H1063.43V168.849C1063.43 170.731 1062.49 171.673 1060.61 171.673Z" fill="black"/>
<path d="M223.159 134.966C227.479 139.285 227.519 146.304 223.202 150.627C223.175 150.654 223.148 150.681 223.121 150.708C220.473 153.356 217.711 155.854 214.842 158.201C206.682 164.881 197.649 170.331 187.881 174.463C174.204 180.248 159.682 183.181 144.717 183.181C129.753 183.181 115.231 180.248 101.554 174.463C88.3503 168.879 76.4919 160.885 66.3135 150.708C56.1329 140.528 48.141 128.672 42.5565 115.467C38.2192 105.216 35.4861 94.4918 34.3884 83.4619H11.7113C5.59576 83.4619 0.477566 78.6163 0.372704 72.5012C0.267841 66.2523 5.29902 61.1523 11.5261 61.1523H45.1736C51.2624 61.1523 56.1552 66.1073 56.1485 72.1956C56.1485 72.2335 56.1485 72.2714 56.1485 72.3094C56.1485 76.0864 56.3873 79.8076 56.8491 83.4619C62.3488 127.05 99.6577 160.872 144.717 160.872C165.123 160.872 183.941 153.936 198.934 142.295C201.883 140.008 204.683 137.538 207.318 134.903C211.667 130.555 218.697 130.506 223.045 134.854L223.159 134.968V134.966Z" fill="black"/>
<path d="M185.149 67.3908L191.521 126.673C178.509 137.907 162.083 144.036 144.717 144.036C125.556 144.036 107.543 136.575 93.9954 123.029C80.4456 109.482 72.9844 91.468 72.9844 72.3088C72.9844 64.9659 74.0801 57.7925 76.1971 50.9727H95.9966C97.8098 50.9727 99.4409 51.3406 100.896 52.0745C102.35 52.8104 103.503 53.904 104.359 55.3573C105.213 56.8106 105.641 58.5471 105.641 60.5647C105.641 62.3777 105.221 64.0439 104.384 65.5654C103.545 67.0869 102.383 68.2921 100.896 69.181C99.4079 70.0699 97.7229 70.5144 95.8437 70.5144H91.2499C90.1004 70.5144 89.3396 71.7093 89.8254 72.7511L95.4322 84.7743L104.7 104.655L105.693 106.78C106.17 107.806 106.975 108.32 108.103 108.32H122.468C122.676 108.32 122.871 108.302 123.049 108.269C123.224 108.304 123.415 108.32 123.623 108.32H136.294C137.56 108.32 138.277 107.671 138.449 106.371L142.778 67.3494C142.885 66.3716 144.258 66.2496 144.537 67.1923L156.247 106.576C156.555 107.737 157.308 108.32 158.505 108.32H169.431C170.628 108.32 171.38 107.737 171.688 106.576L183.388 67.2295C183.669 66.2848 185.044 66.4109 185.149 67.3908Z" fill="black"/>
<path d="M216.447 72.4386C216.425 85.7207 212.817 98.4446 206.077 109.511L197.491 38.1491C197.421 37.5331 197.192 37.0638 196.799 36.7392C196.404 36.4147 195.899 36.2514 195.285 36.2514H180.255C179.056 36.2514 178.306 36.8343 177.998 37.9961L163.89 85.239L149.732 37.9961C149.424 36.8343 148.672 36.2514 147.475 36.2514H132.445C131.829 36.2514 131.324 36.4147 130.931 36.7392C130.536 37.0638 130.307 37.5331 130.239 38.1491L122.802 97.1774C122.61 98.7072 120.551 99.0545 119.867 97.6735L111.332 80.4678C114.855 78.4502 117.599 75.7834 119.567 72.4655C121.533 69.1496 122.515 65.166 122.515 60.5147C122.515 55.8634 121.454 51.5552 119.335 47.8962C117.214 44.2372 114.256 41.3802 110.46 39.3295C106.664 37.2767 102.304 36.2514 97.3794 36.2514H82.6719C85.7564 30.9613 89.5481 26.0371 93.993 21.5925C107.541 8.04372 125.554 0.583008 144.715 0.583008C163.875 0.583008 182.323 8.22357 195.926 22.0845C209.133 35.5402 216.48 53.5853 216.447 72.4386Z" fill="black"/>
<path fill-rule="evenodd" clip-rule="evenodd" d="M93.4648 215.09C93.4648 227.832 103.795 238.161 116.537 238.161C129.28 238.161 139.61 227.832 139.61 215.09C139.61 202.349 129.28 192.02 116.537 192.02C103.795 192.02 93.4648 202.349 93.4648 215.09ZM125.21 215.09C125.21 219.878 121.329 223.76 116.54 223.76C111.752 223.76 107.87 219.878 107.87 215.09C107.87 210.302 111.752 206.421 116.54 206.421C121.329 206.421 125.21 210.302 125.21 215.09Z" fill="black"/>
<path fill-rule="evenodd" clip-rule="evenodd" d="M151.172 215.09C151.172 227.832 161.502 238.161 174.244 238.161C186.987 238.161 197.317 227.832 197.317 215.09C197.317 202.349 186.987 192.02 174.244 192.02C161.502 192.02 151.172 202.349 151.172 215.09ZM182.917 215.09C182.917 219.878 179.036 223.76 174.247 223.76C169.459 223.76 165.577 219.878 165.577 215.09C165.577 210.302 169.459 206.421 174.247 206.421C179.036 206.421 182.917 210.302 182.917 215.09Z" fill="black"/>
</svg>
