<svg width="819" height="861" viewBox="0 0 819 861" fill="none" xmlns="http://www.w3.org/2000/svg">
<path d="M806.36 486.781C821.984 502.405 822.129 527.794 806.513 543.434C806.417 543.53 806.32 543.627 806.223 543.724C796.644 553.303 786.653 562.342 776.275 570.832C746.763 594.994 714.087 614.709 678.756 629.655C629.287 650.581 576.759 661.193 522.633 661.193C468.507 661.193 415.979 650.581 366.51 629.655C318.751 609.455 275.859 580.54 239.044 543.724C202.22 506.9 173.313 464.015 153.114 416.248C137.425 379.166 127.54 340.373 123.569 300.474H41.5452C19.4252 300.474 0.912459 282.946 0.533167 260.825C0.153875 238.221 18.3518 219.772 40.8754 219.772H162.58C184.603 219.772 202.301 237.696 202.276 259.72C202.276 259.857 202.276 259.994 202.276 260.131C202.276 273.794 203.14 287.255 204.81 300.474C224.703 458.148 359.65 580.492 522.633 580.492C596.442 580.492 664.505 555.402 718.735 513.292C729.404 505.02 739.532 496.086 749.063 486.555C764.791 470.827 790.22 470.649 805.949 486.378L806.36 486.789V486.781Z" fill="black"/>
<path d="M668.873 242.338L691.919 456.784C644.854 497.419 585.442 519.591 522.628 519.591C453.323 519.591 388.168 492.603 339.166 443.6C290.156 394.597 263.168 329.434 263.168 260.128C263.168 233.567 267.131 207.618 274.789 182.948H346.404C352.962 182.948 358.862 184.279 364.127 186.934C369.384 189.596 373.556 193.552 376.652 198.809C379.741 204.066 381.288 210.347 381.288 217.646C381.288 224.204 379.77 230.231 376.742 235.735C373.706 241.239 369.503 245.599 364.127 248.814C358.743 252.03 352.648 253.637 345.851 253.637H329.235C325.077 253.637 322.325 257.96 324.083 261.729L344.363 305.22L377.886 377.136L381.475 384.823C383.203 388.532 386.112 390.394 390.195 390.394H442.151C442.906 390.394 443.609 390.327 444.252 390.207C444.888 390.334 445.576 390.394 446.331 390.394H492.163C496.739 390.394 499.334 388.046 499.955 383.343L515.614 242.189C516.002 238.652 520.968 238.21 521.977 241.62L564.332 384.083C565.446 388.285 568.168 390.394 572.498 390.394H612.018C616.348 390.394 619.07 388.285 620.184 384.083L662.501 241.755C663.518 238.337 668.491 238.794 668.873 242.338Z" fill="black"/>
<path d="M782.082 260.598C781.999 308.644 768.951 354.671 744.573 394.7L713.517 136.561C713.263 134.333 712.433 132.635 711.012 131.461C709.584 130.287 707.759 129.697 705.538 129.697H651.174C646.837 129.697 644.122 131.805 643.008 136.008L591.979 306.902L540.771 136.008C539.656 131.805 536.935 129.697 532.605 129.697H478.241C476.012 129.697 474.188 130.287 472.767 131.461C471.339 132.635 470.509 134.333 470.262 136.561L443.364 350.087C442.668 355.621 435.221 356.877 432.745 351.882L401.877 289.643C414.619 282.344 424.542 272.697 431.661 260.695C438.773 248.701 442.325 234.291 442.325 217.465C442.325 200.64 438.488 185.056 430.824 171.82C423.151 158.584 412.45 148.249 398.721 140.831C384.992 133.406 369.221 129.697 351.409 129.697H298.211C309.368 110.56 323.082 92.748 339.16 76.6703C388.162 27.6598 453.317 0.671875 522.622 0.671875C591.927 0.671875 658.652 28.3104 707.856 78.4501C755.625 127.124 782.201 192.399 782.082 260.598Z" fill="black"/>
<path fill-rule="evenodd" clip-rule="evenodd" d="M337.25 776.618C337.25 822.709 374.614 860.073 420.704 860.073C466.794 860.073 504.158 822.709 504.158 776.618C504.158 730.527 466.794 693.163 420.704 693.163C374.614 693.163 337.25 730.527 337.25 776.618ZM452.074 776.618C452.074 793.938 438.034 807.978 420.714 807.978C403.395 807.978 389.354 793.938 389.354 776.618C389.354 759.298 403.395 745.257 420.714 745.257C438.034 745.257 452.074 759.298 452.074 776.618Z" fill="black"/>
<path fill-rule="evenodd" clip-rule="evenodd" d="M545.977 776.618C545.977 822.709 583.34 860.073 629.431 860.073C675.521 860.073 712.884 822.709 712.884 776.618C712.884 730.527 675.521 693.163 629.431 693.163C583.34 693.163 545.977 730.527 545.977 776.618ZM660.801 776.618C660.801 793.938 646.761 807.978 629.441 807.978C612.121 807.978 598.081 793.938 598.081 776.618C598.081 759.298 612.121 745.257 629.441 745.257C646.761 745.257 660.801 759.298 660.801 776.618Z" fill="black"/>
</svg>
