<svg width="819" height="860" viewBox="0 0 819 860" fill="none" xmlns="http://www.w3.org/2000/svg">
<path d="M806.36 486.561C821.984 502.185 822.129 527.574 806.513 543.214C806.417 543.311 806.32 543.408 806.223 543.504C796.644 553.084 786.653 562.122 776.275 570.612C746.763 594.774 714.087 614.489 678.756 629.435C629.287 650.361 576.759 660.973 522.633 660.973C468.507 660.973 415.979 650.361 366.51 629.435C318.751 609.236 275.859 580.32 239.044 543.504C202.22 506.68 173.313 463.796 153.114 416.028C137.425 378.946 127.54 340.153 123.569 300.254H41.5452C19.4252 300.254 0.912459 282.726 0.533167 260.606C0.153875 238.001 18.3518 219.553 40.8754 219.553H162.58C184.603 219.553 202.301 237.477 202.276 259.5C202.276 259.637 202.276 259.774 202.276 259.912C202.276 273.574 203.14 287.035 204.81 300.254C224.703 457.929 359.65 580.272 522.633 580.272C596.442 580.272 664.505 555.182 718.735 513.072C729.404 504.8 739.532 495.866 749.063 486.335C764.791 470.607 790.22 470.429 805.949 486.158L806.36 486.57V486.561Z" fill="#E4B340"/>
<path d="M668.873 242.118L691.919 456.564C644.854 497.199 585.442 519.371 522.628 519.371C453.323 519.371 388.168 492.383 339.166 443.38C290.156 394.377 263.168 329.214 263.168 259.909C263.168 233.347 267.131 207.398 274.789 182.729H346.404C352.962 182.729 358.862 184.06 364.127 186.714C369.384 189.376 373.556 193.332 376.652 198.589C379.741 203.846 381.288 210.128 381.288 217.426C381.288 223.984 379.77 230.012 376.742 235.515C373.706 241.019 369.503 245.379 364.127 248.594C358.743 251.81 352.648 253.418 345.851 253.418H329.235C325.077 253.418 322.325 257.74 324.083 261.509L344.363 305.001L377.886 376.916L381.475 384.603C383.203 388.312 386.112 390.174 390.195 390.174H442.151C442.906 390.174 443.609 390.107 444.252 389.988C444.888 390.115 445.576 390.174 446.331 390.174H492.163C496.739 390.174 499.334 387.826 499.955 383.123L515.614 241.969C516.002 238.432 520.968 237.991 521.977 241.401L564.332 383.863C565.446 388.066 568.168 390.174 572.498 390.174H612.018C616.348 390.174 619.07 388.066 620.184 383.863L662.501 241.535C663.518 238.118 668.491 238.574 668.873 242.118Z" fill="#020178"/>
<path d="M782.082 260.378C781.999 308.424 768.951 354.451 744.573 394.48L713.517 136.341C713.263 134.113 712.433 132.415 711.012 131.241C709.584 130.067 707.759 129.476 705.538 129.476H651.174C646.837 129.476 644.122 131.585 643.008 135.788L591.979 306.681L540.771 135.788C539.656 131.585 536.935 129.476 532.605 129.476H478.241C476.012 129.476 474.188 130.067 472.767 131.241C471.339 132.415 470.509 134.113 470.262 136.341L443.364 349.867C442.668 355.4 435.221 356.657 432.745 351.661L401.877 289.422C414.619 282.124 424.542 272.477 431.661 260.475C438.773 248.481 442.325 234.07 442.325 217.245C442.325 200.42 438.488 184.836 430.824 171.6C423.151 158.364 412.45 148.029 398.721 140.611C384.992 133.185 369.221 129.476 351.409 129.476H298.211C309.368 110.34 323.082 92.5277 339.16 76.4501C388.162 27.4396 453.317 0.45166 522.622 0.45166C591.927 0.45166 658.652 28.0902 707.856 78.2299C755.625 126.904 782.201 192.179 782.082 260.378Z" fill="#020178"/>
<path fill-rule="evenodd" clip-rule="evenodd" d="M337.25 776.398C337.25 822.489 374.614 859.853 420.704 859.853C466.794 859.853 504.158 822.489 504.158 776.398C504.158 730.307 466.794 692.943 420.704 692.943C374.614 692.943 337.25 730.307 337.25 776.398ZM452.074 776.398C452.074 793.718 438.034 807.759 420.714 807.759C403.395 807.759 389.354 793.718 389.354 776.398C389.354 759.078 403.395 745.038 420.714 745.038C438.034 745.038 452.074 759.078 452.074 776.398Z" fill="#E4B340"/>
<path fill-rule="evenodd" clip-rule="evenodd" d="M545.977 776.398C545.977 822.489 583.34 859.853 629.431 859.853C675.521 859.853 712.884 822.489 712.884 776.398C712.884 730.307 675.521 692.943 629.431 692.943C583.34 692.943 545.977 730.307 545.977 776.398ZM660.801 776.398C660.801 793.718 646.761 807.759 629.441 807.759C612.121 807.759 598.081 793.718 598.081 776.398C598.081 759.078 612.121 745.038 629.441 745.038C646.761 745.038 660.801 759.078 660.801 776.398Z" fill="#E4B340"/>
</svg>
