<svg width="819" height="860" viewBox="0 0 819 860" fill="none" xmlns="http://www.w3.org/2000/svg">
<path d="M806.36 486.577C821.984 502.201 822.129 527.59 806.513 543.23C806.417 543.326 806.32 543.423 806.223 543.52C796.644 553.099 786.653 562.138 776.275 570.628C746.763 594.79 714.087 614.505 678.756 629.451C629.287 650.377 576.759 660.989 522.633 660.989C468.507 660.989 415.979 650.377 366.51 629.451C318.751 609.251 275.859 580.336 239.044 543.52C202.22 506.696 173.313 463.811 153.114 416.044C137.425 378.962 127.54 340.169 123.569 300.27H41.5452C19.4252 300.27 0.912459 282.741 0.533167 260.621C0.153875 238.017 18.3518 219.568 40.8754 219.568H162.58C184.603 219.568 202.301 237.492 202.276 259.516C202.276 259.653 202.276 259.79 202.276 259.927C202.276 273.59 203.14 287.051 204.81 300.27C224.703 457.944 359.65 580.288 522.633 580.288C596.442 580.288 664.505 555.197 718.735 513.087C729.404 504.816 739.532 495.882 749.063 486.351C764.791 470.622 790.22 470.445 805.949 486.174L806.36 486.585V486.577Z" fill="white"/>
<path d="M668.873 242.134L691.919 456.579C644.854 497.215 585.442 519.387 522.628 519.387C453.323 519.387 388.168 492.399 339.166 443.396C290.156 394.393 263.168 329.23 263.168 259.924C263.168 233.362 267.131 207.414 274.789 182.744H346.404C352.962 182.744 358.862 184.075 364.127 186.73C369.384 189.392 373.556 193.348 376.652 198.605C379.741 203.862 381.288 210.143 381.288 217.442C381.288 224 379.77 230.027 376.742 235.531C373.706 241.035 369.503 245.394 364.127 248.61C358.743 251.826 352.648 253.433 345.851 253.433H329.235C325.077 253.433 322.325 257.756 324.083 261.524L344.363 305.016L377.886 376.932L381.475 384.619C383.203 388.328 386.112 390.19 390.195 390.19H442.151C442.906 390.19 443.609 390.123 444.252 390.003C444.888 390.13 445.576 390.19 446.331 390.19H492.163C496.739 390.19 499.334 387.842 499.955 383.138L515.614 241.985C516.002 238.447 520.968 238.006 521.977 241.416L564.332 383.879C565.446 388.081 568.168 390.19 572.498 390.19H612.018C616.348 390.19 619.07 388.081 620.184 383.879L662.501 241.551C663.518 238.133 668.491 238.59 668.873 242.134Z" fill="white"/>
<path d="M782.082 260.394C781.999 308.44 768.951 354.467 744.573 394.496L713.517 136.357C713.263 134.129 712.433 132.431 711.012 131.257C709.584 130.083 707.759 129.492 705.538 129.492H651.174C646.837 129.492 644.122 131.601 643.008 135.804L591.979 306.698L540.771 135.804C539.656 131.601 536.935 129.492 532.605 129.492H478.241C476.012 129.492 474.188 130.083 472.767 131.257C471.339 132.431 470.509 134.129 470.262 136.357L443.364 349.883C442.668 355.416 435.221 356.673 432.745 351.677L401.877 289.438C414.619 282.14 424.542 272.493 431.661 260.491C438.773 248.497 442.325 234.087 442.325 217.261C442.325 200.436 438.488 184.852 430.824 171.616C423.151 158.38 412.45 148.045 398.721 140.627C384.992 133.201 369.221 129.492 351.409 129.492H298.211C309.368 110.356 323.082 92.5438 339.16 76.4662C388.162 27.4557 453.317 0.467773 522.622 0.467773C591.927 0.467773 658.652 28.1063 707.856 78.246C755.625 126.92 782.201 192.195 782.082 260.394Z" fill="white"/>
<path fill-rule="evenodd" clip-rule="evenodd" d="M337.25 776.414C337.25 822.505 374.614 859.869 420.704 859.869C466.794 859.869 504.158 822.505 504.158 776.414C504.158 730.323 466.794 692.959 420.704 692.959C374.614 692.959 337.25 730.323 337.25 776.414ZM452.074 776.414C452.074 793.734 438.034 807.774 420.714 807.774C403.395 807.774 389.354 793.734 389.354 776.414C389.354 759.094 403.395 745.053 420.714 745.053C438.034 745.053 452.074 759.094 452.074 776.414Z" fill="white"/>
<path fill-rule="evenodd" clip-rule="evenodd" d="M545.977 776.414C545.977 822.505 583.34 859.869 629.431 859.869C675.521 859.869 712.884 822.505 712.884 776.414C712.884 730.323 675.521 692.959 629.431 692.959C583.34 692.959 545.977 730.323 545.977 776.414ZM660.801 776.414C660.801 793.734 646.761 807.774 629.441 807.774C612.121 807.774 598.081 793.734 598.081 776.414C598.081 759.094 612.121 745.053 629.441 745.053C646.761 745.053 660.801 759.094 660.801 776.414Z" fill="white"/>
</svg>
