<svg width="1081" height="149" viewBox="0 0 1081 149" fill="none" xmlns="http://www.w3.org/2000/svg">
<path d="M0.316406 141.687V14.826C0.316406 12.2741 1.59454 10.9961 4.14657 10.9961H57.3866C66.5799 10.9961 74.7158 12.911 81.8028 16.7409C88.8899 20.5708 94.4101 25.8995 98.3677 32.7313C102.325 39.563 104.304 47.4138 104.304 56.2837C104.304 65.1535 102.47 72.4014 98.7965 78.5921C95.1235 84.7827 90.0024 89.7632 83.4292 93.5294L106.983 141.021C107.366 141.785 107.557 142.456 107.557 143.033C107.557 143.798 107.251 144.405 106.648 144.855C106.041 145.301 105.225 145.526 104.206 145.526H77.3952C75.289 145.526 73.7858 144.57 72.8941 142.655L53.7433 101.58C52.5926 101.643 50.9025 101.677 48.669 101.677H31.3356V141.7C31.3356 144.252 30.0575 145.53 27.5054 145.53H4.14657C1.59454 145.53 0.316406 144.252 0.316406 141.7V141.687ZM63.9429 72.4609C66.72 70.8007 68.8899 68.5503 70.4525 65.7098C72.0151 62.8692 72.7965 59.7569 72.7965 56.3729C72.7965 52.6067 71.9982 49.367 70.4015 46.6538C68.8049 43.9406 66.6521 41.8983 63.9387 40.5269C61.2253 39.1554 58.1764 38.4676 54.7921 38.4676H31.3314V74.9448H54.5034C58.0151 74.9448 61.1574 74.1168 63.9344 72.4566L63.9429 72.4609Z" fill="white"/>
<path d="M141.642 140.348C132.355 134.986 124.997 127.725 119.57 118.567C114.143 109.408 111.43 99.3705 111.43 88.4541C111.43 77.5377 114.16 67.2624 119.617 58.0062C125.073 48.75 132.462 41.4426 141.782 36.08C151.103 30.7173 161.281 28.0381 172.326 28.0381C183.37 28.0381 193.663 30.7173 203.014 36.08C212.364 41.4426 219.77 48.75 225.23 58.0062C230.687 67.2624 233.417 77.4103 233.417 88.4541C233.417 99.4979 230.674 109.408 225.184 118.567C219.693 127.725 212.258 134.986 202.874 140.348C193.489 145.711 183.243 148.39 172.139 148.39C161.035 148.39 150.929 145.711 141.642 140.348ZM188.275 116.027C193.094 113.221 196.925 109.391 199.765 104.538C202.606 99.689 204.029 94.2626 204.029 88.263C204.029 82.2635 202.606 76.8074 199.765 71.8905C196.925 66.978 193.094 63.1141 188.275 60.3033C183.455 57.4967 178.173 56.0913 172.428 56.0913C166.683 56.0913 161.4 57.4967 156.581 60.3033C151.761 63.1141 147.931 66.9737 145.09 71.8905C142.249 76.8074 140.827 82.2635 140.827 88.263C140.827 94.2626 142.245 99.689 145.09 104.538C147.931 109.391 151.761 113.221 156.581 116.027C161.4 118.838 166.683 120.24 172.428 120.24C178.173 120.24 183.455 118.834 188.275 116.027Z" fill="white"/>
<path d="M406.022 33.1135C412.467 37.0707 417.448 42.9132 420.96 50.6366C424.472 58.36 426.225 67.7139 426.225 78.6898V141.692C426.225 144.243 424.947 145.521 422.395 145.521H400.756C398.204 145.521 396.926 144.243 396.926 141.692V79.8405C396.926 72.1807 395.075 66.1344 391.372 61.6974C387.669 57.2603 382.467 55.0439 375.762 55.0439C371.55 55.0439 367.733 56.1309 364.319 58.3006C360.905 60.4703 358.157 63.3745 356.085 67.0134C354.009 70.6522 352.845 74.5754 352.59 78.7917V141.696C352.59 144.248 351.312 145.526 348.76 145.526H327.023C324.471 145.526 323.193 144.248 323.193 141.696V79.8447C323.193 72.185 321.359 66.1387 317.686 61.7016C314.013 57.2646 308.828 55.0482 302.127 55.0482C297.724 55.0482 293.749 56.2456 290.208 58.6403C286.667 61.035 283.89 64.194 281.877 68.1173C279.864 72.0448 278.862 76.2399 278.862 80.7066V141.696C278.862 144.248 277.584 145.526 275.032 145.526H253.295C250.743 145.526 249.465 144.248 249.465 141.696V33.7843C249.465 31.2325 250.739 29.9545 253.295 29.9545H270.051C272.284 29.9545 273.72 30.9777 274.361 33.0201L276.467 39.7202C280.87 35.6993 285.932 32.6039 291.643 30.4343C297.355 28.2646 303.342 27.1776 309.597 27.1776C317.321 27.1776 324.166 28.7571 330.136 31.9161C336.106 35.0751 340.939 39.6862 344.641 45.7495C349.172 39.8136 354.807 35.2322 361.542 32.0095C368.276 28.7868 375.537 27.1733 383.325 27.1733C392.005 27.1733 399.571 29.152 406.017 33.1092L406.022 33.1135Z" fill="white"/>
<path d="M537.157 29.953H553.531C556.083 29.953 557.361 31.2311 557.361 33.7829V141.69C557.361 144.242 556.083 145.52 553.531 145.52H536.584C534.478 145.52 533.043 144.467 532.274 142.361L530.359 134.701C521.934 143.575 511.302 148.008 498.474 148.008C487.684 148.008 477.773 145.329 468.741 139.966C459.709 134.604 452.575 127.313 447.34 118.087C442.104 108.865 439.488 98.7931 439.488 87.8809C439.488 76.9687 442.121 66.9312 447.386 57.7684C452.652 48.6098 459.803 41.3662 468.834 36.0333C477.866 30.7046 487.747 28.0381 498.469 28.0381C511.493 28.0381 522.185 32.4751 530.546 41.345L532.843 33.0144C533.544 30.9721 534.983 29.9488 537.153 29.9488L537.157 29.953ZM514.703 115.79C519.395 113.077 523.081 109.327 525.76 104.538C528.44 99.7484 529.782 94.3263 529.782 88.263C529.782 82.1998 528.44 76.7267 525.76 71.8438C523.081 66.961 519.408 63.1141 514.75 60.3075C510.087 57.5009 504.885 56.0955 499.14 56.0955C493.395 56.0955 488.223 57.5009 483.629 60.3075C479.034 63.1184 475.425 66.961 472.809 71.8438C470.189 76.7267 468.881 82.1998 468.881 88.263C468.881 94.3263 470.172 99.7696 472.758 104.589C475.344 109.408 478.919 113.157 483.484 115.841C488.049 118.52 493.204 119.862 498.949 119.862C504.694 119.862 510.007 118.507 514.699 115.794L514.703 115.79Z" fill="white"/>
<path d="M646.41 145.517H622.758C621.48 145.517 620.524 145.169 619.887 144.464C619.251 143.764 618.992 142.774 619.123 141.496L635.115 14.5372C635.242 13.3866 635.671 12.5119 636.406 11.9047C637.14 11.2976 638.083 10.9961 639.229 10.9961H667.285C669.518 10.9961 670.924 12.0831 671.497 14.2528L697.926 102.433L724.257 14.2528C724.83 12.0831 726.236 10.9961 728.47 10.9961H756.525C757.676 10.9961 758.614 11.3018 759.349 11.9047C760.083 12.5119 760.512 13.3908 760.64 14.5372L776.724 141.594C776.852 142.872 776.597 143.861 775.96 144.562C775.323 145.267 774.364 145.615 773.09 145.615H749.344C746.983 145.615 745.642 144.405 745.323 141.976L736.707 60.7844L712.482 142.265C711.909 144.434 710.503 145.521 708.27 145.521H687.875C685.641 145.521 684.236 144.439 683.663 142.265L659.437 60.7844L650.435 141.883C650.117 144.311 648.775 145.521 646.414 145.521L646.41 145.517Z" fill="white"/>
<path d="M884.31 29.953H900.683C903.235 29.953 904.514 31.2311 904.514 33.7829V141.69C904.514 144.242 903.235 145.52 900.683 145.52H883.736C881.63 145.52 880.195 144.467 879.426 142.361L877.511 134.701C869.087 143.575 858.454 148.008 845.626 148.008C834.836 148.008 824.925 145.329 815.893 139.966C806.861 134.604 799.728 127.313 794.492 118.087C789.256 108.865 786.641 98.7931 786.641 87.8809C786.641 76.9687 789.273 66.9312 794.539 57.7684C799.804 48.6098 806.955 41.3662 815.987 36.0333C825.019 30.7046 834.9 28.0381 845.622 28.0381C858.645 28.0381 869.337 32.4751 877.698 41.345L879.995 33.0144C880.696 30.9721 882.136 29.9488 884.305 29.9488L884.31 29.953ZM861.855 115.79C866.547 113.077 870.233 109.327 872.913 104.538C875.592 99.7484 876.934 94.3263 876.934 88.263C876.934 82.1998 875.592 76.7267 872.913 71.8438C870.233 66.961 866.56 63.1141 861.902 60.3075C857.24 57.5009 852.038 56.0955 846.293 56.0955C840.547 56.0955 835.375 57.5009 830.781 60.3075C826.186 63.1184 822.577 66.961 819.961 71.8438C817.341 76.7267 816.033 82.1998 816.033 88.263C816.033 94.3263 817.324 99.7696 819.91 104.589C822.496 109.408 826.072 113.157 830.637 115.841C835.201 118.52 840.356 119.862 846.101 119.862C851.847 119.862 857.159 118.507 861.851 115.794L861.855 115.79Z" fill="white"/>
<path d="M1009.6 34.6448C1010.95 35.477 1011.62 36.53 1011.62 37.8038C1011.62 38.4407 1011.42 39.1456 1011.04 39.9098L1001.47 57.9085C1000.7 59.314 999.709 60.0146 998.499 60.0146C997.735 60.0146 997 59.7938 996.295 59.3437C991.442 56.7282 986.847 55.4162 982.508 55.4162C978.168 55.4162 974.274 56.6475 970.444 59.1017C966.614 61.5601 963.518 65.1649 961.157 69.9204C958.796 74.6759 957.616 80.3401 957.616 86.9171V141.686C957.616 144.238 956.338 145.516 953.786 145.516H932.049C929.497 145.516 928.219 144.238 928.219 141.686V33.7829C928.219 31.2311 929.493 29.953 932.049 29.953H948.805C950.975 29.953 952.41 30.9763 953.115 33.0186L956.847 43.935C960.486 38.8271 964.728 34.9038 969.582 32.1567C974.431 29.4138 980.113 28.0381 986.627 28.0381C994.223 28.0381 1001.88 30.2418 1009.61 34.6448H1009.6Z" fill="white"/>
<path d="M1053.51 145.517H1031.77C1029.22 145.517 1027.94 144.239 1027.94 141.687V57.1408H1017.41C1014.86 57.1408 1013.58 55.8628 1013.58 53.311V33.7795C1013.58 31.2276 1014.85 29.9496 1017.41 29.9496H1027.75V9.27168C1027.75 6.91091 1028.9 5.50549 1031.2 5.05967L1053.22 0.847657C1053.47 0.783968 1053.79 0.75 1054.18 0.75C1055.2 0.75 1055.99 1.06845 1056.57 1.70534C1057.15 2.34224 1057.43 3.20418 1057.43 4.29115V29.9496H1076.49C1079.04 29.9496 1080.32 31.2276 1080.32 33.7795V53.311C1080.32 55.8628 1079.04 57.1408 1076.49 57.1408H1057.34V141.687C1057.34 144.239 1056.06 145.517 1053.51 145.517Z" fill="white"/>
</svg>
