<svg width="1081" height="148" viewBox="0 0 1081 148" fill="none" xmlns="http://www.w3.org/2000/svg">
<path d="M0.316406 141.269V14.408C0.316406 11.8562 1.59454 10.5781 4.14657 10.5781H57.3866C66.5799 10.5781 74.7158 12.4931 81.8028 16.3229C88.8899 20.1528 94.4101 25.4815 98.3677 32.3133C102.325 39.1451 104.304 46.9959 104.304 55.8657C104.304 64.7356 102.47 71.9835 98.7965 78.1741C95.1235 84.3647 90.0024 89.3453 83.4292 93.1114L106.983 140.603C107.366 141.367 107.557 142.038 107.557 142.615C107.557 143.38 107.251 143.987 106.648 144.437C106.041 144.883 105.225 145.108 104.206 145.108H77.3952C75.289 145.108 73.7858 144.152 72.8941 142.237L53.7433 101.162C52.5926 101.226 50.9025 101.259 48.669 101.259H31.3356V141.282C31.3356 143.834 30.0575 145.112 27.5054 145.112H4.14657C1.59454 145.112 0.316406 143.834 0.316406 141.282V141.269ZM63.9429 72.0429C66.72 70.3827 68.8899 68.1324 70.4525 65.2918C72.0151 62.4512 72.7965 59.3389 72.7965 55.9549C72.7965 52.1887 71.9982 48.949 70.4015 46.2358C68.8049 43.5227 66.6521 41.4804 63.9387 40.1089C61.2253 38.7375 58.1764 38.0496 54.7921 38.0496H31.3314V74.5268H54.5034C58.0151 74.5268 61.1574 73.6988 63.9344 72.0387L63.9429 72.0429Z" fill="#020178"/>
<path d="M141.642 139.93C132.355 134.568 124.997 127.307 119.57 118.149C114.143 108.99 111.43 98.9526 111.43 88.0361C111.43 77.1197 114.16 66.8445 119.617 57.5882C125.073 48.332 132.462 41.0247 141.782 35.662C151.103 30.2993 161.281 27.6201 172.326 27.6201C183.37 27.6201 193.663 30.2993 203.014 35.662C212.364 41.0247 219.77 48.332 225.23 57.5882C230.687 66.8445 233.417 76.9924 233.417 88.0361C233.417 99.0799 230.674 108.99 225.184 118.149C219.693 127.307 212.258 134.568 202.874 139.93C193.489 145.293 183.243 147.972 172.139 147.972C161.035 147.972 150.929 145.293 141.642 139.93ZM188.275 115.61C193.094 112.803 196.925 108.973 199.765 104.12C202.606 99.271 204.029 93.8446 204.029 87.8451C204.029 81.8455 202.606 76.3894 199.765 71.4726C196.925 66.56 193.094 62.6961 188.275 59.8853C183.455 57.0787 178.173 55.6733 172.428 55.6733C166.683 55.6733 161.4 57.0787 156.581 59.8853C151.761 62.6961 147.931 66.5557 145.09 71.4726C142.249 76.3894 140.827 81.8455 140.827 87.8451C140.827 93.8446 142.245 99.271 145.09 104.12C147.931 108.973 151.761 112.803 156.581 115.61C161.4 118.42 166.683 119.822 172.428 119.822C178.173 119.822 183.455 118.416 188.275 115.61Z" fill="#020178"/>
<path d="M406.022 32.695C412.467 36.6523 417.448 42.4947 420.96 50.2182C424.472 57.9416 426.225 67.2955 426.225 78.2713V141.273C426.225 143.825 424.947 145.103 422.395 145.103H400.756C398.204 145.103 396.926 143.825 396.926 141.273V79.422C396.926 71.7623 395.075 65.716 391.372 61.2789C387.669 56.8419 382.467 54.6255 375.762 54.6255C371.55 54.6255 367.733 55.7125 364.319 57.8821C360.905 60.0518 358.157 62.9561 356.085 66.5949C354.009 70.2337 352.845 74.157 352.59 78.3732V141.277C352.59 143.829 351.312 145.107 348.76 145.107H327.023C324.471 145.107 323.193 143.829 323.193 141.277V79.4262C323.193 71.7665 321.359 65.7202 317.686 61.2832C314.013 56.8461 308.828 54.6297 302.127 54.6297C297.724 54.6297 293.749 55.8271 290.208 58.2218C286.667 60.6166 283.89 63.7756 281.877 67.6989C279.864 71.6264 278.862 75.8214 278.862 80.2882V141.277C278.862 143.829 277.584 145.107 275.032 145.107H253.295C250.743 145.107 249.465 143.829 249.465 141.277V33.3659C249.465 30.814 250.739 29.536 253.295 29.536H270.051C272.284 29.536 273.72 30.5593 274.361 32.6016L276.467 39.3017C280.87 35.2808 285.932 32.1855 291.643 30.0158C297.355 27.8461 303.342 26.7591 309.597 26.7591C317.321 26.7591 324.166 28.3386 330.136 31.4976C336.106 34.6566 340.939 39.2678 344.641 45.331C349.172 39.3952 354.807 34.8138 361.542 31.5911C368.276 28.3684 375.537 26.7549 383.325 26.7549C392.005 26.7549 399.571 28.7335 406.017 32.6908L406.022 32.695Z" fill="#020178"/>
<path d="M537.157 29.5351H553.531C556.083 29.5351 557.361 30.8131 557.361 33.3649V141.272C557.361 143.824 556.083 145.102 553.531 145.102H536.584C534.478 145.102 533.043 144.049 532.274 141.943L530.359 134.283C521.934 143.157 511.302 147.59 498.474 147.59C487.684 147.59 477.773 144.911 468.741 139.548C459.709 134.186 452.575 126.895 447.34 117.669C442.104 108.447 439.488 98.3751 439.488 87.4629C439.488 76.5508 442.121 66.5133 447.386 57.3505C452.652 48.1919 459.803 40.9482 468.834 35.6153C477.866 30.2866 487.747 27.6201 498.469 27.6201C511.493 27.6201 522.185 32.0572 530.546 40.927L532.843 32.5964C533.544 30.5541 534.983 29.5308 537.153 29.5308L537.157 29.5351ZM514.703 115.372C519.395 112.659 523.081 108.909 525.76 104.12C528.44 99.3304 529.782 93.9083 529.782 87.8451C529.782 81.7818 528.44 76.3087 525.76 71.4259C523.081 66.543 519.408 62.6961 514.75 59.8896C510.087 57.083 504.885 55.6775 499.14 55.6775C493.395 55.6775 488.223 57.083 483.629 59.8896C479.034 62.7004 475.425 66.543 472.809 71.4259C470.189 76.3087 468.881 81.7818 468.881 87.8451C468.881 93.9083 470.172 99.3517 472.758 104.171C475.344 108.99 478.919 112.739 483.484 115.423C488.049 118.102 493.204 119.444 498.949 119.444C504.694 119.444 510.007 118.089 514.699 115.376L514.703 115.372Z" fill="#020178"/>
<path d="M646.41 145.099H622.758C621.48 145.099 620.524 144.751 619.887 144.046C619.251 143.346 618.992 142.356 619.123 141.078L635.115 14.1193C635.242 12.9686 635.671 12.0939 636.406 11.4868C637.14 10.8796 638.083 10.5781 639.229 10.5781H667.285C669.518 10.5781 670.924 11.6651 671.497 13.8348L697.926 102.015L724.257 13.8348C724.83 11.6651 726.236 10.5781 728.47 10.5781H756.525C757.676 10.5781 758.614 10.8838 759.349 11.4868C760.083 12.0939 760.512 12.9729 760.64 14.1193L776.724 141.176C776.852 142.454 776.597 143.443 775.96 144.144C775.323 144.849 774.364 145.197 773.09 145.197H749.344C746.983 145.197 745.642 143.987 745.323 141.558L736.707 60.3665L712.482 141.847C711.909 144.016 710.503 145.103 708.27 145.103H687.875C685.641 145.103 684.236 144.021 683.663 141.847L659.437 60.3665L650.435 141.465C650.117 143.893 648.775 145.103 646.414 145.103L646.41 145.099Z" fill="#020178"/>
<path d="M884.31 29.5351H900.683C903.235 29.5351 904.514 30.8131 904.514 33.3649V141.272C904.514 143.824 903.235 145.102 900.683 145.102H883.736C881.63 145.102 880.195 144.049 879.426 141.943L877.511 134.283C869.087 143.157 858.454 147.59 845.626 147.59C834.836 147.59 824.925 144.911 815.893 139.548C806.861 134.186 799.728 126.895 794.492 117.669C789.256 108.447 786.641 98.3751 786.641 87.4629C786.641 76.5508 789.273 66.5133 794.539 57.3505C799.804 48.1919 806.955 40.9482 815.987 35.6153C825.019 30.2866 834.9 27.6201 845.622 27.6201C858.645 27.6201 869.337 32.0572 877.698 40.927L879.995 32.5964C880.696 30.5541 882.136 29.5308 884.305 29.5308L884.31 29.5351ZM861.855 115.372C866.547 112.659 870.233 108.909 872.913 104.12C875.592 99.3304 876.934 93.9083 876.934 87.8451C876.934 81.7818 875.592 76.3087 872.913 71.4259C870.233 66.543 866.56 62.6961 861.902 59.8896C857.24 57.083 852.038 55.6775 846.293 55.6775C840.547 55.6775 835.375 57.083 830.781 59.8896C826.186 62.7004 822.577 66.543 819.961 71.4259C817.341 76.3087 816.033 81.7818 816.033 87.8451C816.033 93.9083 817.324 99.3517 819.91 104.171C822.496 108.99 826.072 112.739 830.637 115.423C835.201 118.102 840.356 119.444 846.101 119.444C851.847 119.444 857.159 118.089 861.851 115.376L861.855 115.372Z" fill="#020178"/>
<path d="M1009.6 34.2269C1010.95 35.0591 1011.62 36.1121 1011.62 37.3859C1011.62 38.0228 1011.42 38.7276 1011.04 39.4919L1001.47 57.4906C1000.7 58.896 999.709 59.5966 998.499 59.5966C997.735 59.5966 997 59.3758 996.295 58.9257C991.442 56.3102 986.847 54.9982 982.508 54.9982C978.168 54.9982 974.274 56.2295 970.444 58.6837C966.614 61.1421 963.518 64.747 961.157 69.5025C958.796 74.2579 957.616 79.9221 957.616 86.4991V141.268C957.616 143.82 956.338 145.098 953.786 145.098H932.049C929.497 145.098 928.219 143.82 928.219 141.268V33.3649C928.219 30.8131 929.493 29.5351 932.049 29.5351H948.805C950.975 29.5351 952.41 30.5583 953.115 32.6007L956.847 43.5171C960.486 38.4091 964.728 34.4859 969.582 31.7387C974.431 28.9958 980.113 27.6201 986.627 27.6201C994.223 27.6201 1001.88 29.8238 1009.61 34.2269H1009.6Z" fill="#020178"/>
<path d="M1053.51 145.099H1031.77C1029.22 145.099 1027.94 143.821 1027.94 141.269V56.7229H1017.41C1014.86 56.7229 1013.58 55.4448 1013.58 52.893V33.3615C1013.58 30.8097 1014.85 29.5316 1017.41 29.5316H1027.75V8.85371C1027.75 6.49294 1028.9 5.08753 1031.2 4.6417L1053.22 0.429689C1053.47 0.365999 1053.79 0.332031 1054.18 0.332031C1055.2 0.332031 1055.99 0.65048 1056.57 1.28738C1057.15 1.92427 1057.43 2.78621 1057.43 3.87318V29.5316H1076.49C1079.04 29.5316 1080.32 30.8097 1080.32 33.3615V52.893C1080.32 55.4448 1079.04 56.7229 1076.49 56.7229H1057.34V141.269C1057.34 143.821 1056.06 145.099 1053.51 145.099Z" fill="#020178"/>
</svg>
