<svg width="1081" height="149" viewBox="0 0 1081 149" fill="none" xmlns="http://www.w3.org/2000/svg">
<path d="M0.316406 141.489V14.6277C0.316406 12.0759 1.59454 10.7979 4.14657 10.7979H57.3866C66.5799 10.7979 74.7158 12.7128 81.8028 16.5427C88.8899 20.3725 94.4101 25.7012 98.3677 32.533C102.325 39.3648 104.304 47.2156 104.304 56.0855C104.304 64.9553 102.47 72.2032 98.7965 78.3938C95.1235 84.5845 90.0024 89.565 83.4292 93.3312L106.983 140.822C107.366 141.587 107.557 142.258 107.557 142.835C107.557 143.599 107.251 144.206 106.648 144.657C106.041 145.102 105.225 145.327 104.206 145.327H77.3952C75.289 145.327 73.7858 144.372 72.8941 142.457L53.7433 101.382C52.5926 101.445 50.9025 101.479 48.669 101.479H31.3356V141.502C31.3356 144.054 30.0575 145.332 27.5054 145.332H4.14657C1.59454 145.332 0.316406 144.054 0.316406 141.502V141.489ZM63.9429 72.2626C66.72 70.6024 68.8899 68.3521 70.4525 65.5115C72.0151 62.671 72.7965 59.5587 72.7965 56.1746C72.7965 52.4084 71.9982 49.1688 70.4015 46.4556C68.8049 43.7424 66.6521 41.7001 63.9387 40.3286C61.2253 38.9572 58.1764 38.2693 54.7921 38.2693H31.3314V74.7465H54.5034C58.0151 74.7465 61.1574 73.9186 63.9344 72.2584L63.9429 72.2626Z" fill="black"/>
<path d="M141.642 140.15C132.355 134.788 124.997 127.527 119.57 118.368C114.143 109.21 111.43 99.1723 111.43 88.2559C111.43 77.3395 114.16 67.0642 119.617 57.808C125.073 48.5517 132.462 41.2444 141.782 35.8817C151.103 30.5191 161.281 27.8398 172.326 27.8398C183.37 27.8398 193.663 30.5191 203.014 35.8817C212.364 41.2444 219.77 48.5517 225.23 57.808C230.687 67.0642 233.417 77.2121 233.417 88.2559C233.417 99.2997 230.674 109.21 225.184 118.368C219.693 127.527 212.258 134.788 202.874 140.15C193.489 145.513 183.243 148.192 172.139 148.192C161.035 148.192 150.929 145.513 141.642 140.15ZM188.275 115.829C193.094 113.023 196.925 109.193 199.765 104.34C202.606 99.4907 204.029 94.0644 204.029 88.0648C204.029 82.0652 202.606 76.6091 199.765 71.6923C196.925 66.7797 193.094 62.9159 188.275 60.105C183.455 57.2984 178.173 55.893 172.428 55.893C166.683 55.893 161.4 57.2984 156.581 60.105C151.761 62.9159 147.931 66.7755 145.09 71.6923C142.249 76.6091 140.827 82.0652 140.827 88.0648C140.827 94.0644 142.245 99.4907 145.09 104.34C147.931 109.193 151.761 113.023 156.581 115.829C161.4 118.64 166.683 120.041 172.428 120.041C178.173 120.041 183.455 118.636 188.275 115.829Z" fill="black"/>
<path d="M406.022 32.9147C412.467 36.872 417.448 42.7144 420.96 50.4379C424.472 58.1613 426.225 67.5152 426.225 78.4911V141.493C426.225 144.045 424.947 145.323 422.395 145.323H400.756C398.204 145.323 396.926 144.045 396.926 141.493V79.6417C396.926 71.982 395.075 65.9357 391.372 61.4987C387.669 57.0616 382.467 54.8452 375.762 54.8452C371.55 54.8452 367.733 55.9322 364.319 58.1019C360.905 60.2716 358.157 63.1758 356.085 66.8146C354.009 70.4534 352.845 74.3767 352.59 78.593V141.497C352.59 144.049 351.312 145.327 348.76 145.327H327.023C324.471 145.327 323.193 144.049 323.193 141.497V79.646C323.193 71.9862 321.359 65.94 317.686 61.5029C314.013 57.0659 308.828 54.8495 302.127 54.8495C297.724 54.8495 293.749 56.0468 290.208 58.4416C286.667 60.8363 283.89 63.9953 281.877 67.9186C279.864 71.8461 278.862 76.0411 278.862 80.5079V141.497C278.862 144.049 277.584 145.327 275.032 145.327H253.295C250.743 145.327 249.465 144.049 249.465 141.497V33.5856C249.465 31.0338 250.739 29.7557 253.295 29.7557H270.051C272.284 29.7557 273.72 30.779 274.361 32.8213L276.467 39.5215C280.87 35.5005 285.932 32.4052 291.643 30.2355C297.355 28.0658 303.342 26.9789 309.597 26.9789C317.321 26.9789 324.166 28.5584 330.136 31.7174C336.106 34.8764 340.939 39.4875 344.641 45.5508C349.172 39.6149 354.807 35.0335 361.542 31.8108C368.276 28.5881 375.537 26.9746 383.325 26.9746C392.005 26.9746 399.571 28.9532 406.017 32.9105L406.022 32.9147Z" fill="black"/>
<path d="M537.157 29.7548H553.531C556.083 29.7548 557.361 31.0328 557.361 33.5847V141.492C557.361 144.044 556.083 145.322 553.531 145.322H536.584C534.478 145.322 533.043 144.269 532.274 142.163L530.359 134.503C521.934 143.377 511.302 147.81 498.474 147.81C487.684 147.81 477.773 145.131 468.741 139.768C459.709 134.405 452.575 127.115 447.34 117.889C442.104 108.666 439.488 98.5948 439.488 87.6827C439.488 76.7705 442.121 66.733 447.386 57.5702C452.652 48.4116 459.803 41.168 468.834 35.835C477.866 30.5063 487.747 27.8398 498.469 27.8398C511.493 27.8398 522.185 32.2769 530.546 41.1467L532.843 32.8161C533.544 30.7738 534.983 29.7505 537.153 29.7505L537.157 29.7548ZM514.703 115.591C519.395 112.878 523.081 109.129 525.76 104.34C528.44 99.5502 529.782 94.1281 529.782 88.0648C529.782 82.0015 528.44 76.5285 525.76 71.6456C523.081 66.7627 519.408 62.9159 514.75 60.1093C510.087 57.3027 504.885 55.8973 499.14 55.8973C493.395 55.8973 488.223 57.3027 483.629 60.1093C479.034 62.9201 475.425 66.7627 472.809 71.6456C470.189 76.5285 468.881 82.0015 468.881 88.0648C468.881 94.1281 470.172 99.5714 472.758 104.391C475.344 109.21 478.919 112.959 483.484 115.642C488.049 118.322 493.204 119.663 498.949 119.663C504.694 119.663 510.007 118.309 514.699 115.596L514.703 115.591Z" fill="black"/>
<path d="M646.41 145.319H622.758C621.48 145.319 620.524 144.971 619.887 144.266C619.251 143.565 618.992 142.576 619.123 141.298L635.115 14.339C635.242 13.1883 635.671 12.3137 636.406 11.7065C637.14 11.0993 638.083 10.7979 639.229 10.7979H667.285C669.518 10.7979 670.924 11.8848 671.497 14.0545L697.926 102.235L724.257 14.0545C724.83 11.8848 726.236 10.7979 728.47 10.7979H756.525C757.676 10.7979 758.614 11.1036 759.349 11.7065C760.083 12.3137 760.512 13.1926 760.64 14.339L776.724 141.396C776.852 142.674 776.597 143.663 775.96 144.364C775.323 145.068 774.364 145.417 773.09 145.417H749.344C746.983 145.417 745.642 144.206 745.323 141.778L736.707 60.5862L712.482 142.066C711.909 144.236 710.503 145.323 708.27 145.323H687.875C685.641 145.323 684.236 144.24 683.663 142.066L659.437 60.5862L650.435 141.684C650.117 144.113 648.775 145.323 646.414 145.323L646.41 145.319Z" fill="black"/>
<path d="M884.31 29.7548H900.683C903.235 29.7548 904.514 31.0328 904.514 33.5847V141.492C904.514 144.044 903.235 145.322 900.683 145.322H883.736C881.63 145.322 880.195 144.269 879.426 142.163L877.511 134.503C869.087 143.377 858.454 147.81 845.626 147.81C834.836 147.81 824.925 145.131 815.893 139.768C806.861 134.405 799.728 127.115 794.492 117.889C789.256 108.666 786.641 98.5948 786.641 87.6827C786.641 76.7705 789.273 66.733 794.539 57.5702C799.804 48.4116 806.955 41.168 815.987 35.835C825.019 30.5063 834.9 27.8398 845.622 27.8398C858.645 27.8398 869.337 32.2769 877.698 41.1467L879.995 32.8161C880.696 30.7738 882.136 29.7505 884.305 29.7505L884.31 29.7548ZM861.855 115.591C866.547 112.878 870.233 109.129 872.913 104.34C875.592 99.5502 876.934 94.1281 876.934 88.0648C876.934 82.0015 875.592 76.5285 872.913 71.6456C870.233 66.7627 866.56 62.9159 861.902 60.1093C857.24 57.3027 852.038 55.8973 846.293 55.8973C840.547 55.8973 835.375 57.3027 830.781 60.1093C826.186 62.9201 822.577 66.7627 819.961 71.6456C817.341 76.5285 816.033 82.0015 816.033 88.0648C816.033 94.1281 817.324 99.5714 819.91 104.391C822.496 109.21 826.072 112.959 830.637 115.642C835.201 118.322 840.356 119.663 846.101 119.663C851.847 119.663 857.159 118.309 861.851 115.596L861.855 115.591Z" fill="black"/>
<path d="M1009.6 34.4466C1010.95 35.2788 1011.62 36.3318 1011.62 37.6056C1011.62 38.2425 1011.42 38.9473 1011.04 39.7116L1001.47 57.7103C1000.7 59.1157 999.709 59.8163 998.499 59.8163C997.735 59.8163 997 59.5955 996.295 59.1454C991.442 56.5299 986.847 55.2179 982.508 55.2179C978.168 55.2179 974.274 56.4492 970.444 58.9034C966.614 61.3618 963.518 64.9667 961.157 69.7222C958.796 74.4777 957.616 80.1418 957.616 86.7188V141.488C957.616 144.04 956.338 145.318 953.786 145.318H932.049C929.497 145.318 928.219 144.04 928.219 141.488V33.5847C928.219 31.0328 929.493 29.7548 932.049 29.7548H948.805C950.975 29.7548 952.41 30.7781 953.115 32.8204L956.847 43.7368C960.486 38.6289 964.728 34.7056 969.582 31.9584C974.431 29.2155 980.113 27.8398 986.627 27.8398C994.223 27.8398 1001.88 30.0435 1009.61 34.4466H1009.6Z" fill="black"/>
<path d="M1053.51 145.318H1031.77C1029.22 145.318 1027.94 144.04 1027.94 141.488V56.9426H1017.41C1014.86 56.9426 1013.58 55.6645 1013.58 53.1127V33.5812C1013.58 31.0294 1014.85 29.7513 1017.41 29.7513H1027.75V9.07343C1027.75 6.71267 1028.9 5.30725 1031.2 4.86142L1053.22 0.649415C1053.47 0.585726 1053.79 0.551758 1054.18 0.551758C1055.2 0.551758 1055.99 0.870206 1056.57 1.5071C1057.15 2.144 1057.43 3.00593 1057.43 4.0929V29.7513H1076.49C1079.04 29.7513 1080.32 31.0294 1080.32 33.5812V53.1127C1080.32 55.6645 1079.04 56.9426 1076.49 56.9426H1057.34V141.488C1057.34 144.04 1056.06 145.318 1053.51 145.318Z" fill="black"/>
</svg>
